<?xml version="1.0" encoding="utf-8"?><svg xmlns="http://www.w3.org/2000/svg" width="2240" height="1232">

    <g id="GEO"><polygon points="875.4406543281463,779.2136752136752,893.679001293316,768.6837606837606,911.9173482584857,779.2136752136752,911.9173482584857,800.2735042735043,893.679001293316,810.8034188034188,875.4406543281463,800.2735042735043,875.4406543281463,779.2136752136752" fill="rgb(112, 245, 152)"/>
        <polygon points="857.2023073629766,810.8034188034188,875.4406543281464,800.2735042735043,893.6790012933161,810.8034188034188,893.6790012933161,831.8632478632479,875.4406543281464,842.3931623931625,857.2023073629766,831.8632478632479,857.2023073629766,810.8034188034188" fill="rgb(112, 245, 152)"/>
        <polygon points="875.4406543281463,842.3931623931624,893.679001293316,831.8632478632478,911.9173482584857,842.3931623931624,911.9173482584857,863.4529914529915,893.679001293316,873.982905982906,875.4406543281463,863.4529914529915,875.4406543281463,842.3931623931624" fill="rgb(112, 245, 152)"/>
        <polygon points="893.679001293316,747.6239316239316,911.9173482584857,737.0940170940171,930.1556952236555,747.6239316239316,930.1556952236555,768.6837606837607,911.9173482584857,779.2136752136753,893.679001293316,768.6837606837607,893.679001293316,747.6239316239316" fill="rgb(112, 245, 152)"/>
        <polygon points="911.9173482584857,779.2136752136752,930.1556952236555,768.6837606837606,948.3940421888252,779.2136752136752,948.3940421888252,800.2735042735043,930.1556952236555,810.8034188034188,911.9173482584857,800.2735042735043,911.9173482584857,779.2136752136752" fill="rgb(112, 245, 152)"/>
        <polygon points="893.679001293316,810.8034188034188,911.9173482584857,800.2735042735043,930.1556952236555,810.8034188034188,930.1556952236555,831.8632478632479,911.9173482584857,842.3931623931625,893.679001293316,831.8632478632479,893.679001293316,810.8034188034188" fill="rgb(112, 245, 152)"/>
        <polygon points="911.9173482584857,842.3931623931624,930.1556952236555,831.8632478632478,948.3940421888252,842.3931623931624,948.3940421888252,863.4529914529915,930.1556952236555,873.982905982906,911.9173482584857,863.4529914529915,911.9173482584857,842.3931623931624" fill="rgb(112, 245, 152)"/>
        <polygon points="930.1556952236555,747.6239316239316,948.3940421888252,737.0940170940171,966.632389153995,747.6239316239316,966.632389153995,768.6837606837607,948.3940421888252,779.2136752136753,930.1556952236555,768.6837606837607,930.1556952236555,747.6239316239316" fill="rgb(112, 245, 152)"/>
        <polygon points="948.3940421888251,779.2136752136752,966.6323891539948,768.6837606837606,984.8707361191646,779.2136752136752,984.8707361191646,800.2735042735043,966.6323891539948,810.8034188034188,948.3940421888251,800.2735042735043,948.3940421888251,779.2136752136752" fill="rgb(112, 245, 152)"/>
        <polygon points="930.1556952236555,810.8034188034188,948.3940421888252,800.2735042735043,966.632389153995,810.8034188034188,966.632389153995,831.8632478632479,948.3940421888252,842.3931623931625,930.1556952236555,831.8632478632479,930.1556952236555,810.8034188034188" fill="rgb(112, 245, 152)"/>
        <polygon points="948.3940421888251,842.3931623931624,966.6323891539948,831.8632478632478,984.8707361191646,842.3931623931624,984.8707361191646,863.4529914529915,966.6323891539948,873.982905982906,948.3940421888251,863.4529914529915,948.3940421888251,842.3931623931624" fill="rgb(112, 245, 152)"/>
        <polygon points="966.6323891539948,810.8034188034188,984.8707361191646,800.2735042735043,1003.1090830843343,810.8034188034188,1003.1090830843343,831.8632478632479,984.8707361191646,842.3931623931625,966.6323891539948,831.8632478632479,966.6323891539948,810.8034188034188" fill="rgb(112, 245, 152)"/>
        <polygon points="984.8707361191646,842.3931623931624,1003.1090830843343,831.8632478632478,1021.347430049504,842.3931623931624,1021.347430049504,863.4529914529915,1003.1090830843343,873.982905982906,984.8707361191646,863.4529914529915,984.8707361191646,842.3931623931624" fill="rgb(112, 245, 152)"/>
        <polygon points="1021.347430049504,842.3931623931624,1039.5857770146738,831.8632478632478,1057.8241239798435,842.3931623931624,1057.8241239798435,863.4529914529915,1039.5857770146738,873.982905982906,1021.347430049504,863.4529914529915,1021.347430049504,842.3931623931624" fill="rgb(112, 245, 152)"/></g>
    <g id="ILL"><polygon points="729.5338786067886,526.4957264957264,747.7722255719583,515.9658119658119,766.010572537128,526.4957264957264,766.010572537128,547.5555555555555,747.7722255719583,558.0854700854701,729.5338786067886,547.5555555555555,729.5338786067886,526.4957264957264" fill="rgb(112, 245, 124)"/>
    <polygon points="711.2955316416188,558.0854700854701,729.5338786067886,547.5555555555555,747.7722255719583,558.0854700854701,747.7722255719583,579.1452991452992,729.5338786067886,589.6752136752137,711.2955316416188,579.1452991452992,711.2955316416188,558.0854700854701" fill="rgb(112, 245, 124)"/>
    <polygon points="729.5338786067886,589.6752136752136,747.7722255719583,579.1452991452991,766.010572537128,589.6752136752136,766.010572537128,610.7350427350427,747.7722255719583,621.2649572649573,729.5338786067886,610.7350427350427,729.5338786067886,589.6752136752136" fill="rgb(112, 245, 124)"/>
    <polygon points="711.2955316416188,621.2649572649573,729.5338786067886,610.7350427350427,747.7722255719583,621.2649572649573,747.7722255719583,642.3247863247864,729.5338786067886,652.8547008547009,711.2955316416188,642.3247863247864,711.2955316416188,621.2649572649573" fill="rgb(112, 245, 124)"/>
    <polygon points="766.010572537128,463.3162393162393,784.2489195022978,452.7863247863248,802.4872664674675,463.3162393162393,802.4872664674675,484.3760683760684,784.2489195022978,494.9059829059829,766.010572537128,484.3760683760684,766.010572537128,463.3162393162393" fill="rgb(112, 245, 124)"/>
    <polygon points="747.7722255719583,494.9059829059829,766.010572537128,484.3760683760684,784.2489195022978,494.9059829059829,784.2489195022978,515.965811965812,766.010572537128,526.4957264957266,747.7722255719583,515.965811965812,747.7722255719583,494.9059829059829" fill="rgb(112, 245, 124)"/>
    <polygon points="766.010572537128,526.4957264957264,784.2489195022978,515.9658119658119,802.4872664674675,526.4957264957264,802.4872664674675,547.5555555555555,784.2489195022978,558.0854700854701,766.010572537128,547.5555555555555,766.010572537128,526.4957264957264" fill="rgb(112, 245, 124)"/>
    <polygon points="747.7722255719583,558.0854700854701,766.010572537128,547.5555555555555,784.2489195022978,558.0854700854701,784.2489195022978,579.1452991452992,766.010572537128,589.6752136752137,747.7722255719583,579.1452991452992,747.7722255719583,558.0854700854701" fill="rgb(112, 245, 124)"/>
    <polygon points="766.010572537128,589.6752136752136,784.2489195022978,579.1452991452991,802.4872664674675,589.6752136752136,802.4872664674675,610.7350427350427,784.2489195022978,621.2649572649573,766.010572537128,610.7350427350427,766.010572537128,589.6752136752136" fill="rgb(112, 245, 124)"/>
    <polygon points="747.7722255719583,621.2649572649573,766.010572537128,610.7350427350427,784.2489195022978,621.2649572649573,784.2489195022978,642.3247863247864,766.010572537128,652.8547008547009,747.7722255719583,642.3247863247864,747.7722255719583,621.2649572649573" fill="rgb(112, 245, 124)"/>
    <polygon points="802.4872664674674,463.3162393162393,820.7256134326371,452.7863247863248,838.9639603978069,463.3162393162393,838.9639603978069,484.3760683760684,820.7256134326371,494.9059829059829,802.4872664674674,484.3760683760684,802.4872664674674,463.3162393162393" fill="rgb(112, 245, 124)"/>
    <polygon points="784.2489195022977,494.9059829059829,802.4872664674674,484.3760683760684,820.7256134326371,494.9059829059829,820.7256134326371,515.965811965812,802.4872664674674,526.4957264957266,784.2489195022977,515.965811965812,784.2489195022977,494.9059829059829" fill="rgb(112, 245, 124)"/>
    <polygon points="802.4872664674674,526.4957264957264,820.7256134326371,515.9658119658119,838.9639603978069,526.4957264957264,838.9639603978069,547.5555555555555,820.7256134326371,558.0854700854701,802.4872664674674,547.5555555555555,802.4872664674674,526.4957264957264" fill="rgb(112, 245, 124)"/>
    <polygon points="784.2489195022977,558.0854700854701,802.4872664674674,547.5555555555555,820.7256134326371,558.0854700854701,820.7256134326371,579.1452991452992,802.4872664674674,589.6752136752137,784.2489195022977,579.1452991452992,784.2489195022977,558.0854700854701" fill="rgb(112, 245, 124)"/>
    <polygon points="802.4872664674674,589.6752136752136,820.7256134326371,579.1452991452991,838.9639603978069,589.6752136752136,838.9639603978069,610.7350427350427,820.7256134326371,621.2649572649573,802.4872664674674,610.7350427350427,802.4872664674674,589.6752136752136" fill="rgb(112, 245, 124)"/>
    <polygon points="784.2489195022977,621.2649572649573,802.4872664674674,610.7350427350427,820.7256134326371,621.2649572649573,820.7256134326371,642.3247863247864,802.4872664674674,652.8547008547009,784.2489195022977,642.3247863247864,784.2489195022977,621.2649572649573" fill="rgb(112, 245, 124)"/>
</g>
    <g id="IND"><polygon points="838.9639603978069,463.3162393162393,857.2023073629766,452.7863247863248,875.4406543281464,463.3162393162393,875.4406543281464,484.3760683760684,857.2023073629766,494.9059829059829,838.9639603978069,484.3760683760684,838.9639603978069,463.3162393162393" fill="rgb(112, 245, 117)"/>
    <polygon points="820.7256134326371,494.9059829059829,838.9639603978069,484.3760683760684,857.2023073629766,494.9059829059829,857.2023073629766,515.965811965812,838.9639603978069,526.4957264957266,820.7256134326371,515.965811965812,820.7256134326371,494.9059829059829" fill="rgb(112, 245, 117)"/>
    <polygon points="838.9639603978069,526.4957264957264,857.2023073629766,515.9658119658119,875.4406543281464,526.4957264957264,875.4406543281464,547.5555555555555,857.2023073629766,558.0854700854701,838.9639603978069,547.5555555555555,838.9639603978069,526.4957264957264" fill="rgb(112, 245, 117)"/>
    <polygon points="820.7256134326371,558.0854700854701,838.9639603978069,547.5555555555555,857.2023073629766,558.0854700854701,857.2023073629766,579.1452991452992,838.9639603978069,589.6752136752137,820.7256134326371,579.1452991452992,820.7256134326371,558.0854700854701" fill="rgb(112, 245, 117)"/>
    <polygon points="838.9639603978069,589.6752136752136,857.2023073629766,579.1452991452991,875.4406543281464,589.6752136752136,875.4406543281464,610.7350427350427,857.2023073629766,621.2649572649573,838.9639603978069,610.7350427350427,838.9639603978069,589.6752136752136" fill="rgb(112, 245, 117)"/>
    <polygon points="820.7256134326371,621.2649572649573,838.9639603978069,610.7350427350427,857.2023073629766,621.2649572649573,857.2023073629766,642.3247863247864,838.9639603978069,652.8547008547009,820.7256134326371,642.3247863247864,820.7256134326371,621.2649572649573" fill="rgb(112, 245, 117)"/>
    <polygon points="875.4406543281463,463.3162393162393,893.679001293316,452.7863247863248,911.9173482584857,463.3162393162393,911.9173482584857,484.3760683760684,893.679001293316,494.9059829059829,875.4406543281463,484.3760683760684,875.4406543281463,463.3162393162393" fill="rgb(112, 245, 117)"/>
    <polygon points="857.2023073629766,494.9059829059829,875.4406543281464,484.3760683760684,893.6790012933161,494.9059829059829,893.6790012933161,515.965811965812,875.4406543281464,526.4957264957266,857.2023073629766,515.965811965812,857.2023073629766,494.9059829059829" fill="rgb(112, 245, 117)"/>
    <polygon points="875.4406543281463,526.4957264957264,893.679001293316,515.9658119658119,911.9173482584857,526.4957264957264,911.9173482584857,547.5555555555555,893.679001293316,558.0854700854701,875.4406543281463,547.5555555555555,875.4406543281463,526.4957264957264" fill="rgb(112, 245, 117)"/>
    <polygon points="857.2023073629766,558.0854700854701,875.4406543281464,547.5555555555555,893.6790012933161,558.0854700854701,893.6790012933161,579.1452991452992,875.4406543281464,589.6752136752137,857.2023073629766,579.1452991452992,857.2023073629766,558.0854700854701" fill="rgb(112, 245, 117)"/>
    <polygon points="875.4406543281463,589.6752136752136,893.679001293316,579.1452991452991,911.9173482584857,589.6752136752136,911.9173482584857,610.7350427350427,893.679001293316,621.2649572649573,875.4406543281463,610.7350427350427,875.4406543281463,589.6752136752136" fill="rgb(112, 245, 117)"/>
</g><g id="IOW"><polygon points="583.6271028854309,463.3162393162393,601.8654498506006,452.7863247863248,620.1037968157704,463.3162393162393,620.1037968157704,484.3760683760684,601.8654498506006,494.9059829059829,583.6271028854309,484.3760683760684,583.6271028854309,463.3162393162393" fill="rgb(114, 245, 112)"/>
    <polygon points="620.1037968157702,463.3162393162393,638.34214378094,452.7863247863248,656.5804907461097,463.3162393162393,656.5804907461097,484.3760683760684,638.34214378094,494.9059829059829,620.1037968157702,484.3760683760684,620.1037968157702,463.3162393162393" fill="rgb(114, 245, 112)"/>
    <polygon points="601.8654498506006,494.9059829059829,620.1037968157704,484.3760683760684,638.3421437809401,494.9059829059829,638.3421437809401,515.965811965812,620.1037968157704,526.4957264957266,601.8654498506006,515.965811965812,601.8654498506006,494.9059829059829" fill="rgb(114, 245, 112)"/>
    <polygon points="656.5804907461097,463.3162393162393,674.8188377112795,452.7863247863248,693.0571846764492,463.3162393162393,693.0571846764492,484.3760683760684,674.8188377112795,494.9059829059829,656.5804907461097,484.3760683760684,656.5804907461097,463.3162393162393" fill="rgb(114, 245, 112)"/>
    <polygon points="638.34214378094,494.9059829059829,656.5804907461097,484.3760683760684,674.8188377112795,494.9059829059829,674.8188377112795,515.965811965812,656.5804907461097,526.4957264957266,638.34214378094,515.965811965812,638.34214378094,494.9059829059829" fill="rgb(114, 245, 112)"/>
    <polygon points="674.8188377112795,494.9059829059829,693.0571846764492,484.3760683760684,711.2955316416189,494.9059829059829,711.2955316416189,515.965811965812,693.0571846764492,526.4957264957266,674.8188377112795,515.965811965812,674.8188377112795,494.9059829059829" fill="rgb(114, 245, 112)"/>
</g><g id="KAN"><polygon points="510.673715024752,526.4957264957264,528.9120619899218,515.9658119658119,547.1504089550915,526.4957264957264,547.1504089550915,547.5555555555555,528.9120619899218,558.0854700854701,510.673715024752,547.5555555555555,510.673715024752,526.4957264957264" fill="rgb(121, 245, 112)"/>
    <polygon points="510.673715024752,589.6752136752136,528.9120619899218,579.1452991452991,547.1504089550915,589.6752136752136,547.1504089550915,610.7350427350427,528.9120619899218,621.2649572649573,510.673715024752,610.7350427350427,510.673715024752,589.6752136752136" fill="rgb(121, 245, 112)"/>
    <polygon points="547.1504089550914,526.4957264957264,565.3887559202611,515.9658119658119,583.6271028854309,526.4957264957264,583.6271028854309,547.5555555555555,565.3887559202611,558.0854700854701,547.1504089550914,547.5555555555555,547.1504089550914,526.4957264957264" fill="rgb(121, 245, 112)"/>
    <polygon points="528.9120619899217,558.0854700854701,547.1504089550914,547.5555555555555,565.3887559202611,558.0854700854701,565.3887559202611,579.1452991452992,547.1504089550914,589.6752136752137,528.9120619899217,579.1452991452992,528.9120619899217,558.0854700854701" fill="rgb(121, 245, 112)"/>
    <polygon points="547.1504089550914,589.6752136752136,565.3887559202611,579.1452991452991,583.6271028854309,589.6752136752136,583.6271028854309,610.7350427350427,565.3887559202611,621.2649572649573,547.1504089550914,610.7350427350427,547.1504089550914,589.6752136752136" fill="rgb(121, 245, 112)"/>
    <polygon points="565.3887559202611,558.0854700854701,583.6271028854309,547.5555555555555,601.8654498506006,558.0854700854701,601.8654498506006,579.1452991452992,583.6271028854309,589.6752136752137,565.3887559202611,579.1452991452992,565.3887559202611,558.0854700854701" fill="rgb(121, 245, 112)"/>
</g><g id="KEN"><polygon points="838.9639603978069,652.8547008547008,857.2023073629766,642.3247863247863,875.4406543281464,652.8547008547008,875.4406543281464,673.9145299145299,857.2023073629766,684.4444444444445,838.9639603978069,673.9145299145299,838.9639603978069,652.8547008547008" fill="rgb(129, 245, 112)"/>
    <polygon points="857.2023073629766,621.2649572649573,875.4406543281464,610.7350427350427,893.6790012933161,621.2649572649573,893.6790012933161,642.3247863247864,875.4406543281464,652.8547008547009,857.2023073629766,642.3247863247864,857.2023073629766,621.2649572649573" fill="rgb(129, 245, 112)"/>
    <polygon points="875.4406543281463,652.8547008547008,893.679001293316,642.3247863247863,911.9173482584857,652.8547008547008,911.9173482584857,673.9145299145299,893.679001293316,684.4444444444445,875.4406543281463,673.9145299145299,875.4406543281463,652.8547008547008" fill="rgb(129, 245, 112)"/>
    <polygon points="893.679001293316,621.2649572649573,911.9173482584857,610.7350427350427,930.1556952236555,621.2649572649573,930.1556952236555,642.3247863247864,911.9173482584857,652.8547008547009,893.679001293316,642.3247863247864,893.679001293316,621.2649572649573" fill="rgb(129, 245, 112)"/>
    <polygon points="911.9173482584857,652.8547008547008,930.1556952236555,642.3247863247863,948.3940421888252,652.8547008547008,948.3940421888252,673.9145299145299,930.1556952236555,684.4444444444445,911.9173482584857,673.9145299145299,911.9173482584857,652.8547008547008" fill="rgb(129, 245, 112)"/>
</g><g id="LOU"><polygon points="656.5804907461097,779.2136752136752,674.8188377112795,768.6837606837606,693.0571846764492,779.2136752136752,693.0571846764492,800.2735042735043,674.8188377112795,810.8034188034188,656.5804907461097,800.2735042735043,656.5804907461097,779.2136752136752" fill="rgb(136, 245, 112)"/>
    <polygon points="656.5804907461097,842.3931623931624,674.8188377112795,831.8632478632478,693.0571846764492,842.3931623931624,693.0571846764492,863.4529914529915,674.8188377112795,873.982905982906,656.5804907461097,863.4529914529915,656.5804907461097,842.3931623931624" fill="rgb(136, 245, 112)"/>
    <polygon points="674.8188377112795,747.6239316239316,693.0571846764492,737.0940170940171,711.2955316416189,747.6239316239316,711.2955316416189,768.6837606837607,693.0571846764492,779.2136752136753,674.8188377112795,768.6837606837607,674.8188377112795,747.6239316239316" fill="rgb(136, 245, 112)"/>
    <polygon points="693.0571846764491,779.2136752136752,711.2955316416188,768.6837606837606,729.5338786067886,779.2136752136752,729.5338786067886,800.2735042735043,711.2955316416188,810.8034188034188,693.0571846764491,800.2735042735043,693.0571846764491,779.2136752136752" fill="rgb(136, 245, 112)"/>
    <polygon points="674.8188377112795,810.8034188034188,693.0571846764492,800.2735042735043,711.2955316416189,810.8034188034188,711.2955316416189,831.8632478632479,693.0571846764492,842.3931623931625,674.8188377112795,831.8632478632479,674.8188377112795,810.8034188034188" fill="rgb(136, 245, 112)"/>
    <polygon points="693.0571846764491,842.3931623931624,711.2955316416188,831.8632478632478,729.5338786067886,842.3931623931624,729.5338786067886,863.4529914529915,711.2955316416188,873.982905982906,693.0571846764491,863.4529914529915,693.0571846764491,842.3931623931624" fill="rgb(136, 245, 112)"/>
    <polygon points="729.5338786067886,842.3931623931624,747.7722255719583,831.8632478632478,766.010572537128,842.3931623931624,766.010572537128,863.4529914529915,747.7722255719583,873.982905982906,729.5338786067886,863.4529914529915,729.5338786067886,842.3931623931624" fill="rgb(136, 245, 112)"/>
    <polygon points="711.2955316416188,873.982905982906,729.5338786067886,863.4529914529915,747.7722255719583,873.982905982906,747.7722255719583,895.0427350427351,729.5338786067886,905.5726495726497,711.2955316416188,895.0427350427351,711.2955316416188,873.982905982906" fill="rgb(136, 245, 112)"/>
</g><g id="MIN"><polygon points="620.1037968157702,336.95726495726495,638.34214378094,326.42735042735046,656.5804907461097,336.95726495726495,656.5804907461097,358.01709401709405,638.34214378094,368.54700854700855,620.1037968157702,358.01709401709405,620.1037968157702,336.95726495726495" fill="rgb(171, 245, 112)"/>
    <polygon points="601.8654498506006,368.54700854700855,620.1037968157704,358.01709401709405,638.3421437809401,368.54700854700855,638.3421437809401,389.60683760683764,620.1037968157704,400.13675213675214,601.8654498506006,389.60683760683764,601.8654498506006,368.54700854700855" fill="rgb(171, 245, 112)"/>
    <polygon points="620.1037968157702,400.13675213675214,638.34214378094,389.60683760683764,656.5804907461097,400.13675213675214,656.5804907461097,421.19658119658123,638.34214378094,431.7264957264957,620.1037968157702,421.19658119658123,620.1037968157702,400.13675213675214" fill="rgb(171, 245, 112)"/>
    <polygon points="601.8654498506006,431.7264957264957,620.1037968157704,421.19658119658123,638.3421437809401,431.7264957264957,638.3421437809401,452.7863247863248,620.1037968157704,463.3162393162393,601.8654498506006,452.7863247863248,601.8654498506006,431.7264957264957" fill="rgb(171, 245, 112)"/>
    <polygon points="656.5804907461097,336.95726495726495,674.8188377112795,326.42735042735046,693.0571846764492,336.95726495726495,693.0571846764492,358.01709401709405,674.8188377112795,368.54700854700855,656.5804907461097,358.01709401709405,656.5804907461097,336.95726495726495" fill="rgb(171, 245, 112)"/>
    <polygon points="638.34214378094,368.54700854700855,656.5804907461097,358.01709401709405,674.8188377112795,368.54700854700855,674.8188377112795,389.60683760683764,656.5804907461097,400.13675213675214,638.34214378094,389.60683760683764,638.34214378094,368.54700854700855" fill="rgb(171, 245, 112)"/>
    <polygon points="656.5804907461097,400.13675213675214,674.8188377112795,389.60683760683764,693.0571846764492,400.13675213675214,693.0571846764492,421.19658119658123,674.8188377112795,431.7264957264957,656.5804907461097,421.19658119658123,656.5804907461097,400.13675213675214" fill="rgb(171, 245, 112)"/>
    <polygon points="638.34214378094,431.7264957264957,656.5804907461097,421.19658119658123,674.8188377112795,431.7264957264957,674.8188377112795,452.7863247863248,656.5804907461097,463.3162393162393,638.34214378094,452.7863247863248,638.34214378094,431.7264957264957" fill="rgb(171, 245, 112)"/>
    <polygon points="693.0571846764491,336.95726495726495,711.2955316416188,326.42735042735046,729.5338786067886,336.95726495726495,729.5338786067886,358.01709401709405,711.2955316416188,368.54700854700855,693.0571846764491,358.01709401709405,693.0571846764491,336.95726495726495" fill="rgb(171, 245, 112)"/>
    <polygon points="674.8188377112795,431.7264957264957,693.0571846764492,421.19658119658123,711.2955316416189,431.7264957264957,711.2955316416189,452.7863247863248,693.0571846764492,463.3162393162393,674.8188377112795,452.7863247863248,674.8188377112795,431.7264957264957" fill="rgb(171, 245, 112)"/>
</g><g id="MII"><polygon points="711.2955316416188,747.6239316239316,729.5338786067886,737.0940170940171,747.7722255719583,747.6239316239316,747.7722255719583,768.6837606837607,729.5338786067886,779.2136752136753,711.2955316416188,768.6837606837607,711.2955316416188,747.6239316239316" fill="rgb(179, 245, 112)"/>
    <polygon points="729.5338786067886,779.2136752136752,747.7722255719583,768.6837606837606,766.010572537128,779.2136752136752,766.010572537128,800.2735042735043,747.7722255719583,810.8034188034188,729.5338786067886,800.2735042735043,729.5338786067886,779.2136752136752" fill="rgb(179, 245, 112)"/>
    <polygon points="711.2955316416188,810.8034188034188,729.5338786067886,800.2735042735043,747.7722255719583,810.8034188034188,747.7722255719583,831.8632478632479,729.5338786067886,842.3931623931625,711.2955316416188,831.8632478632479,711.2955316416188,810.8034188034188" fill="rgb(179, 245, 112)"/>
    <polygon points="747.7722255719583,747.6239316239316,766.010572537128,737.0940170940171,784.2489195022978,747.6239316239316,784.2489195022978,768.6837606837607,766.010572537128,779.2136752136753,747.7722255719583,768.6837606837607,747.7722255719583,747.6239316239316" fill="rgb(179, 245, 112)"/>
    <polygon points="747.7722255719583,810.8034188034188,766.010572537128,800.2735042735043,784.2489195022978,810.8034188034188,784.2489195022978,831.8632478632479,766.010572537128,842.3931623931625,747.7722255719583,831.8632478632479,747.7722255719583,810.8034188034188" fill="rgb(179, 245, 112)"/>
    <polygon points="766.010572537128,842.3931623931624,784.2489195022978,831.8632478632478,802.4872664674675,842.3931623931624,802.4872664674675,863.4529914529915,784.2489195022978,873.982905982906,766.010572537128,863.4529914529915,766.010572537128,842.3931623931624" fill="rgb(179, 245, 112)"/>
</g>
    <g id="MIO">
    <polygon points="583.6271028854309,526.4957264957264,601.8654498506006,515.9658119658119,620.1037968157704,526.4957264957264,620.1037968157704,547.5555555555555,601.8654498506006,558.0854700854701,583.6271028854309,547.5555555555555,583.6271028854309,526.4957264957264" fill="rgb(186, 245, 112)"/>
    <polygon points="583.6271028854309,589.6752136752136,601.8654498506006,579.1452991452991,620.1037968157704,589.6752136752136,620.1037968157704,610.7350427350427,601.8654498506006,621.2649572649573,583.6271028854309,610.7350427350427,583.6271028854309,589.6752136752136" fill="rgb(186, 245, 112)"/>
    <polygon points="620.1037968157702,526.4957264957264,638.34214378094,515.9658119658119,656.5804907461097,526.4957264957264,656.5804907461097,547.5555555555555,638.34214378094,558.0854700854701,620.1037968157702,547.5555555555555,620.1037968157702,526.4957264957264" fill="rgb(186, 245, 112)"/>
    <polygon points="601.8654498506006,558.0854700854701,620.1037968157704,547.5555555555555,638.3421437809401,558.0854700854701,638.3421437809401,579.1452991452992,620.1037968157704,589.6752136752137,601.8654498506006,579.1452991452992,601.8654498506006,558.0854700854701" fill="rgb(186, 245, 112)"/>
    <polygon points="620.1037968157702,589.6752136752136,638.34214378094,579.1452991452991,656.5804907461097,589.6752136752136,656.5804907461097,610.7350427350427,638.34214378094,621.2649572649573,620.1037968157702,610.7350427350427,620.1037968157702,589.6752136752136" fill="rgb(186, 245, 112)"/>
    <polygon points="656.5804907461097,526.4957264957264,674.8188377112795,515.9658119658119,693.0571846764492,526.4957264957264,693.0571846764492,547.5555555555555,674.8188377112795,558.0854700854701,656.5804907461097,547.5555555555555,656.5804907461097,526.4957264957264" fill="rgb(186, 245, 112)"/>
    <polygon points="638.34214378094,558.0854700854701,656.5804907461097,547.5555555555555,674.8188377112795,558.0854700854701,674.8188377112795,579.1452991452992,656.5804907461097,589.6752136752137,638.34214378094,579.1452991452992,638.34214378094,558.0854700854701" fill="rgb(186, 245, 112)"/>
    <polygon points="656.5804907461097,589.6752136752136,674.8188377112795,579.1452991452991,693.0571846764492,589.6752136752136,693.0571846764492,610.7350427350427,674.8188377112795,621.2649572649573,656.5804907461097,610.7350427350427,656.5804907461097,589.6752136752136" fill="rgb(186, 245, 112)"/>
    <polygon points="674.8188377112795,558.0854700854701,693.0571846764492,547.5555555555555,711.2955316416189,558.0854700854701,711.2955316416189,579.1452991452992,693.0571846764492,589.6752136752137,674.8188377112795,579.1452991452992,674.8188377112795,558.0854700854701" fill="rgb(186, 245, 112)"/>
    <polygon points="693.0571846764491,589.6752136752136,711.2955316416188,579.1452991452991,729.5338786067886,589.6752136752136,729.5338786067886,610.7350427350427,711.2955316416188,621.2649572649573,693.0571846764491,610.7350427350427,693.0571846764491,589.6752136752136" fill="rgb(186, 245, 112)"/>
</g>
    <g id="NCA">
        <polygon points="911.9173482584857,716.034188034188,930.1556952236555,705.5042735042734,948.3940421888252,716.034188034188,948.3940421888252,737.0940170940171,930.1556952236555,747.6239316239316,911.9173482584857,737.0940170940171,911.9173482584857,716.034188034188" fill="rgb(243, 245, 112)"/>
    <polygon points="930.1556952236555,684.4444444444445,948.3940421888252,673.9145299145299,966.632389153995,684.4444444444445,966.632389153995,705.5042735042736,948.3940421888252,716.0341880341881,930.1556952236555,705.5042735042736,930.1556952236555,684.4444444444445" fill="rgb(243, 245, 112)"/>
    <polygon points="948.3940421888251,716.034188034188,966.6323891539948,705.5042735042734,984.8707361191646,716.034188034188,984.8707361191646,737.0940170940171,966.6323891539948,747.6239316239316,948.3940421888251,737.0940170940171,948.3940421888251,716.034188034188" fill="rgb(243, 245, 112)"/>

    <polygon points="966.6323891539948,684.4444444444445,984.8707361191646,673.9145299145299,1003.1090830843343,684.4444444444445,1003.1090830843343,705.5042735042736,984.8707361191646,716.0341880341881,966.6323891539948,705.5042735042736,966.6323891539948,684.4444444444445" fill="rgb(243, 245, 112)"/>
    <polygon points="984.8707361191646,716.034188034188,1003.1090830843343,705.5042735042734,1021.347430049504,716.034188034188,1021.347430049504,737.0940170940171,1003.1090830843343,747.6239316239316,984.8707361191646,737.0940170940171,984.8707361191646,716.034188034188" fill="rgb(243, 245, 112)"/>
    <polygon points="1003.1090830843343,684.4444444444445,1021.347430049504,673.9145299145299,1039.5857770146738,684.4444444444445,1039.5857770146738,705.5042735042736,1021.347430049504,716.0341880341881,1003.1090830843343,705.5042735042736,1003.1090830843343,684.4444444444445" fill="rgb(243, 245, 112)"/>
    <polygon points="1021.347430049504,716.034188034188,1039.5857770146738,705.5042735042734,1057.8241239798435,716.034188034188,1057.8241239798435,737.0940170940171,1039.5857770146738,747.6239316239316,1021.347430049504,737.0940170940171,1021.347430049504,716.034188034188" fill="rgb(243, 245, 112)"/>
    <polygon points="1039.5857770146738,684.4444444444445,1057.8241239798435,673.9145299145299,1076.0624709450133,684.4444444444445,1076.0624709450133,705.5042735042736,1057.8241239798435,716.0341880341881,1039.5857770146738,705.5042735042736,1039.5857770146738,684.4444444444445" fill="rgb(243, 245, 112)"/>
    <polygon points="1057.8241239798435,716.034188034188,1076.0624709450133,705.5042735042734,1094.300817910183,716.034188034188,1094.300817910183,737.0940170940171,1076.0624709450133,747.6239316239316,1057.8241239798435,737.0940170940171,1057.8241239798435,716.034188034188" fill="rgb(243, 245, 112)"/>
    <polygon points="1076.062470945013,684.4444444444445,1094.3008179101828,673.9145299145299,1112.5391648753525,684.4444444444445,1112.5391648753525,705.5042735042736,1094.3008179101828,716.0341880341881,1076.062470945013,705.5042735042736,1076.062470945013,684.4444444444445" fill="rgb(243, 245, 112)"/>
    <polygon points="1094.3008179101828,716.034188034188,1112.5391648753525,705.5042735042734,1130.7775118405223,716.034188034188,1130.7775118405223,737.0940170940171,1112.5391648753525,747.6239316239316,1094.3008179101828,737.0940170940171,1094.3008179101828,716.034188034188" fill="rgb(243, 245, 112)"/>
    <polygon points="1112.5391648753525,684.4444444444445,1130.7775118405223,673.9145299145299,1149.015858805692,684.4444444444445,1149.015858805692,705.5042735042736,1130.7775118405223,716.0341880341881,1112.5391648753525,705.5042735042736,1112.5391648753525,684.4444444444445" fill="rgb(243, 245, 112)"/>
    <polygon points="1130.7775118405223,716.034188034188,1149.015858805692,705.5042735042734,1167.2542057708617,716.034188034188,1167.2542057708617,737.0940170940171,1149.015858805692,747.6239316239316,1130.7775118405223,737.0940170940171,1130.7775118405223,716.034188034188" fill="rgb(243, 245, 112)"/>
    <polygon points="1112.5391648753525,747.6239316239316,1130.7775118405223,737.0940170940171,1149.015858805692,747.6239316239316,1149.015858805692,768.6837606837607,1130.7775118405223,779.2136752136753,1112.5391648753525,768.6837606837607,1112.5391648753525,747.6239316239316" fill="rgb(243, 245, 112)"/>
    <polygon points="1149.015858805692,684.4444444444445,1167.2542057708617,673.9145299145299,1185.4925527360315,684.4444444444445,1185.4925527360315,705.5042735042736,1167.2542057708617,716.0341880341881,1149.015858805692,705.5042735042736,1149.015858805692,684.4444444444445" fill="rgb(243, 245, 112)"/>
</g><g id="OHI"><polygon points="911.9173482584857,463.3162393162393,930.1556952236555,452.7863247863248,948.3940421888252,463.3162393162393,948.3940421888252,484.3760683760684,930.1556952236555,494.9059829059829,911.9173482584857,484.3760683760684,911.9173482584857,463.3162393162393" fill="rgb(245, 233, 112)"/>
    <polygon points="893.679001293316,494.9059829059829,911.9173482584857,484.3760683760684,930.1556952236555,494.9059829059829,930.1556952236555,515.965811965812,911.9173482584857,526.4957264957266,893.679001293316,515.965811965812,893.679001293316,494.9059829059829" fill="rgb(245, 233, 112)"/>
    <polygon points="911.9173482584857,526.4957264957264,930.1556952236555,515.9658119658119,948.3940421888252,526.4957264957264,948.3940421888252,547.5555555555555,930.1556952236555,558.0854700854701,911.9173482584857,547.5555555555555,911.9173482584857,526.4957264957264" fill="rgb(245, 233, 112)"/>
    <polygon points="893.679001293316,558.0854700854701,911.9173482584857,547.5555555555555,930.1556952236555,558.0854700854701,930.1556952236555,579.1452991452992,911.9173482584857,589.6752136752137,893.679001293316,579.1452991452992,893.679001293316,558.0854700854701" fill="rgb(245, 233, 112)"/>
    <polygon points="911.9173482584857,589.6752136752136,930.1556952236555,579.1452991452991,948.3940421888252,589.6752136752136,948.3940421888252,610.7350427350427,930.1556952236555,621.2649572649573,911.9173482584857,610.7350427350427,911.9173482584857,589.6752136752136" fill="rgb(245, 233, 112)"/>
    <polygon points="948.3940421888251,463.3162393162393,966.6323891539948,452.7863247863248,984.8707361191646,463.3162393162393,984.8707361191646,484.3760683760684,966.6323891539948,494.9059829059829,948.3940421888251,484.3760683760684,948.3940421888251,463.3162393162393" fill="rgb(245, 233, 112)"/>
    <polygon points="930.1556952236555,494.9059829059829,948.3940421888252,484.3760683760684,966.632389153995,494.9059829059829,966.632389153995,515.965811965812,948.3940421888252,526.4957264957266,930.1556952236555,515.965811965812,930.1556952236555,494.9059829059829" fill="rgb(245, 233, 112)"/>
    <polygon points="948.3940421888251,526.4957264957264,966.6323891539948,515.9658119658119,984.8707361191646,526.4957264957264,984.8707361191646,547.5555555555555,966.6323891539948,558.0854700854701,948.3940421888251,547.5555555555555,948.3940421888251,526.4957264957264" fill="rgb(245, 233, 112)"/>
    <polygon points="930.1556952236555,558.0854700854701,948.3940421888252,547.5555555555555,966.632389153995,558.0854700854701,966.632389153995,579.1452991452992,948.3940421888252,589.6752136752137,930.1556952236555,579.1452991452992,930.1556952236555,558.0854700854701" fill="rgb(245, 233, 112)"/>
    <polygon points="948.3940421888251,589.6752136752136,966.6323891539948,579.1452991452991,984.8707361191646,589.6752136752136,984.8707361191646,610.7350427350427,966.6323891539948,621.2649572649573,948.3940421888251,610.7350427350427,948.3940421888251,589.6752136752136" fill="rgb(245, 233, 112)"/>
    <polygon points="930.1556952236555,621.2649572649573,948.3940421888252,610.7350427350427,966.632389153995,621.2649572649573,966.632389153995,642.3247863247864,948.3940421888252,652.8547008547009,930.1556952236555,642.3247863247864,930.1556952236555,621.2649572649573" fill="rgb(245, 233, 112)"/>
    <polygon points="984.8707361191646,463.3162393162393,1003.1090830843343,452.7863247863248,1021.347430049504,463.3162393162393,1021.347430049504,484.3760683760684,1003.1090830843343,494.9059829059829,984.8707361191646,484.3760683760684,984.8707361191646,463.3162393162393" fill="rgb(245, 233, 112)"/>
    <polygon points="966.6323891539948,494.9059829059829,984.8707361191646,484.3760683760684,1003.1090830843343,494.9059829059829,1003.1090830843343,515.965811965812,984.8707361191646,526.4957264957266,966.6323891539948,515.965811965812,966.6323891539948,494.9059829059829" fill="rgb(245, 233, 112)"/>
    <polygon points="984.8707361191646,526.4957264957264,1003.1090830843343,515.9658119658119,1021.347430049504,526.4957264957264,1021.347430049504,547.5555555555555,1003.1090830843343,558.0854700854701,984.8707361191646,547.5555555555555,984.8707361191646,526.4957264957264" fill="rgb(245, 233, 112)"/>
    <polygon points="966.6323891539948,558.0854700854701,984.8707361191646,547.5555555555555,1003.1090830843343,558.0854700854701,1003.1090830843343,579.1452991452992,984.8707361191646,589.6752136752137,966.6323891539948,579.1452991452992,966.6323891539948,558.0854700854701" fill="rgb(245, 233, 112)"/>
    <polygon points="984.8707361191646,589.6752136752136,1003.1090830843343,579.1452991452991,1021.347430049504,589.6752136752136,1021.347430049504,610.7350427350427,1003.1090830843343,621.2649572649573,984.8707361191646,610.7350427350427,984.8707361191646,589.6752136752136" fill="rgb(245, 233, 112)"/>
    <polygon points="1003.1090830843343,494.9059829059829,1021.347430049504,484.3760683760684,1039.5857770146738,494.9059829059829,1039.5857770146738,515.965811965812,1021.347430049504,526.4957264957266,1003.1090830843343,515.965811965812,1003.1090830843343,494.9059829059829" fill="rgb(245, 233, 112)"/>
    <polygon points="1003.1090830843343,558.0854700854701,1021.347430049504,547.5555555555555,1039.5857770146738,558.0854700854701,1039.5857770146738,579.1452991452992,1021.347430049504,589.6752136752137,1003.1090830843343,579.1452991452992,1003.1090830843343,558.0854700854701" fill="rgb(245, 233, 112)"/>
</g><g id="OKL"><polygon points="492.4353680595823,621.2649572649573,510.673715024752,610.7350427350427,528.9120619899218,621.2649572649573,528.9120619899218,642.3247863247864,510.673715024752,652.8547008547009,492.4353680595823,642.3247863247864,492.4353680595823,621.2649572649573" fill="rgb(245, 226, 112)"/>
    <polygon points="528.9120619899217,621.2649572649573,547.1504089550914,610.7350427350427,565.3887559202611,621.2649572649573,565.3887559202611,642.3247863247864,547.1504089550914,652.8547008547009,528.9120619899217,642.3247863247864,528.9120619899217,621.2649572649573" fill="rgb(245, 226, 112)"/>
    <polygon points="565.3887559202611,621.2649572649573,583.6271028854309,610.7350427350427,601.8654498506006,621.2649572649573,601.8654498506006,642.3247863247864,583.6271028854309,652.8547008547009,565.3887559202611,642.3247863247864,565.3887559202611,621.2649572649573" fill="rgb(245, 226, 112)"/>
    <polygon points="583.6271028854309,652.8547008547008,601.8654498506006,642.3247863247863,620.1037968157704,652.8547008547008,620.1037968157704,673.9145299145299,601.8654498506006,684.4444444444445,583.6271028854309,673.9145299145299,583.6271028854309,652.8547008547008" fill="rgb(245, 226, 112)"/>
    <polygon points="601.8654498506006,621.2649572649573,620.1037968157704,610.7350427350427,638.3421437809401,621.2649572649573,638.3421437809401,642.3247863247864,620.1037968157704,652.8547008547009,601.8654498506006,642.3247863247864,601.8654498506006,621.2649572649573" fill="rgb(245, 226, 112)"/>
    <polygon points="620.1037968157702,652.8547008547008,638.34214378094,642.3247863247863,656.5804907461097,652.8547008547008,656.5804907461097,673.9145299145299,638.34214378094,684.4444444444445,620.1037968157702,673.9145299145299,620.1037968157702,652.8547008547008" fill="rgb(245, 226, 112)"/>
    <polygon points="638.34214378094,621.2649572649573,656.5804907461097,610.7350427350427,674.8188377112795,621.2649572649573,674.8188377112795,642.3247863247864,656.5804907461097,652.8547008547009,638.34214378094,642.3247863247864,638.34214378094,621.2649572649573" fill="rgb(245, 226, 112)"/>
</g><g id="SCA"><polygon points="966.6323891539948,747.6239316239316,984.8707361191646,737.0940170940171,1003.1090830843343,747.6239316239316,1003.1090830843343,768.6837606837607,984.8707361191646,779.2136752136753,966.6323891539948,768.6837606837607,966.6323891539948,747.6239316239316" fill="rgb(245, 190, 112)"/>
    <polygon points="984.8707361191646,779.2136752136752,1003.1090830843343,768.6837606837606,1021.347430049504,779.2136752136752,1021.347430049504,800.2735042735043,1003.1090830843343,810.8034188034188,984.8707361191646,800.2735042735043,984.8707361191646,779.2136752136752" fill="rgb(245, 190, 112)"/>
    <polygon points="1003.1090830843343,747.6239316239316,1021.347430049504,737.0940170940171,1039.5857770146738,747.6239316239316,1039.5857770146738,768.6837606837607,1021.347430049504,779.2136752136753,1003.1090830843343,768.6837606837607,1003.1090830843343,747.6239316239316" fill="rgb(245, 190, 112)"/>
    <polygon points="1021.347430049504,779.2136752136752,1039.5857770146738,768.6837606837606,1057.8241239798435,779.2136752136752,1057.8241239798435,800.2735042735043,1039.5857770146738,810.8034188034188,1021.347430049504,800.2735042735043,1021.347430049504,779.2136752136752" fill="rgb(245, 190, 112)"/>
    <polygon points="1003.1090830843343,810.8034188034188,1021.347430049504,800.2735042735043,1039.5857770146738,810.8034188034188,1039.5857770146738,831.8632478632479,1021.347430049504,842.3931623931625,1003.1090830843343,831.8632478632479,1003.1090830843343,810.8034188034188" fill="rgb(245, 190, 112)"/>
    <polygon points="1039.5857770146738,747.6239316239316,1057.8241239798435,737.0940170940171,1076.0624709450133,747.6239316239316,1076.0624709450133,768.6837606837607,1057.8241239798435,779.2136752136753,1039.5857770146738,768.6837606837607,1039.5857770146738,747.6239316239316" fill="rgb(245, 190, 112)"/>
    <polygon points="1057.8241239798435,779.2136752136752,1076.0624709450133,768.6837606837606,1094.300817910183,779.2136752136752,1094.300817910183,800.2735042735043,1076.0624709450133,810.8034188034188,1057.8241239798435,800.2735042735043,1057.8241239798435,779.2136752136752" fill="rgb(245, 190, 112)"/>
    <polygon points="1039.5857770146738,810.8034188034188,1057.8241239798435,800.2735042735043,1076.0624709450133,810.8034188034188,1076.0624709450133,831.8632478632479,1057.8241239798435,842.3931623931625,1039.5857770146738,831.8632478632479,1039.5857770146738,810.8034188034188" fill="rgb(245, 190, 112)"/>
    <polygon points="1076.062470945013,747.6239316239316,1094.3008179101828,737.0940170940171,1112.5391648753525,747.6239316239316,1112.5391648753525,768.6837606837607,1094.3008179101828,779.2136752136753,1076.062470945013,768.6837606837607,1076.062470945013,747.6239316239316" fill="rgb(245, 190, 112)"/>
</g><g id="SDA"><polygon points="547.1504089550914,400.13675213675214,565.3887559202611,389.60683760683764,583.6271028854309,400.13675213675214,583.6271028854309,421.19658119658123,565.3887559202611,431.7264957264957,547.1504089550914,421.19658119658123,547.1504089550914,400.13675213675214" fill="rgb(245, 183, 112)"/>
    <polygon points="583.6271028854309,400.13675213675214,601.8654498506006,389.60683760683764,620.1037968157704,400.13675213675214,620.1037968157704,421.19658119658123,601.8654498506006,431.7264957264957,583.6271028854309,421.19658119658123,583.6271028854309,400.13675213675214" fill="rgb(245, 183, 112)"/>
    <polygon points="565.3887559202611,431.7264957264957,583.6271028854309,421.19658119658123,601.8654498506006,431.7264957264957,601.8654498506006,452.7863247863248,583.6271028854309,463.3162393162393,565.3887559202611,452.7863247863248,565.3887559202611,431.7264957264957" fill="rgb(245, 183, 112)"/>
</g><g id="TEN"><polygon points="711.2955316416188,684.4444444444445,729.5338786067886,673.9145299145299,747.7722255719583,684.4444444444445,747.7722255719583,705.5042735042736,729.5338786067886,716.0341880341881,711.2955316416188,705.5042735042736,711.2955316416188,684.4444444444445" fill="rgb(245, 176, 112)"/>
    <polygon points="729.5338786067886,716.034188034188,747.7722255719583,705.5042735042734,766.010572537128,716.034188034188,766.010572537128,737.0940170940171,747.7722255719583,747.6239316239316,729.5338786067886,737.0940170940171,729.5338786067886,716.034188034188" fill="rgb(245, 176, 112)"/>
    <polygon points="747.7722255719583,684.4444444444445,766.010572537128,673.9145299145299,784.2489195022978,684.4444444444445,784.2489195022978,705.5042735042736,766.010572537128,716.0341880341881,747.7722255719583,705.5042735042736,747.7722255719583,684.4444444444445" fill="rgb(245, 176, 112)"/>
    <polygon points="766.010572537128,716.034188034188,784.2489195022978,705.5042735042734,802.4872664674675,716.034188034188,802.4872664674675,737.0940170940171,784.2489195022978,747.6239316239316,766.010572537128,737.0940170940171,766.010572537128,716.034188034188" fill="rgb(245, 176, 112)"/>
    <polygon points="784.2489195022977,684.4444444444445,802.4872664674674,673.9145299145299,820.7256134326371,684.4444444444445,820.7256134326371,705.5042735042736,802.4872664674674,716.0341880341881,784.2489195022977,705.5042735042736,784.2489195022977,684.4444444444445" fill="rgb(245, 176, 112)"/>
    <polygon points="802.4872664674674,716.034188034188,820.7256134326371,705.5042735042734,838.9639603978069,716.034188034188,838.9639603978069,737.0940170940171,820.7256134326371,747.6239316239316,802.4872664674674,737.0940170940171,802.4872664674674,716.034188034188" fill="rgb(245, 176, 112)"/>
    <polygon points="820.7256134326371,684.4444444444445,838.9639603978069,673.9145299145299,857.2023073629766,684.4444444444445,857.2023073629766,705.5042735042736,838.9639603978069,716.0341880341881,820.7256134326371,705.5042735042736,820.7256134326371,684.4444444444445" fill="rgb(245, 176, 112)"/>
    <polygon points="838.9639603978069,716.034188034188,857.2023073629766,705.5042735042734,875.4406543281464,716.034188034188,875.4406543281464,737.0940170940171,857.2023073629766,747.6239316239316,838.9639603978069,737.0940170940171,838.9639603978069,716.034188034188" fill="rgb(245, 176, 112)"/>
    <polygon points="857.2023073629766,684.4444444444445,875.4406543281464,673.9145299145299,893.6790012933161,684.4444444444445,893.6790012933161,705.5042735042736,875.4406543281464,716.0341880341881,857.2023073629766,705.5042735042736,857.2023073629766,684.4444444444445" fill="rgb(245, 176, 112)"/>
    <polygon points="875.4406543281463,716.034188034188,893.679001293316,705.5042735042734,911.9173482584857,716.034188034188,911.9173482584857,737.0940170940171,893.679001293316,747.6239316239316,875.4406543281463,737.0940170940171,875.4406543281463,716.034188034188" fill="rgb(245, 176, 112)"/>
    <polygon points="893.679001293316,684.4444444444445,911.9173482584857,673.9145299145299,930.1556952236555,684.4444444444445,930.1556952236555,705.5042735042736,911.9173482584857,716.0341880341881,893.679001293316,705.5042735042736,893.679001293316,684.4444444444445" fill="rgb(245, 176, 112)"/>
</g><g id="TEX"><polygon points="510.673715024752,652.8547008547008,528.9120619899218,642.3247863247863,547.1504089550915,652.8547008547008,547.1504089550915,673.9145299145299,528.9120619899218,684.4444444444445,510.673715024752,673.9145299145299,510.673715024752,652.8547008547008" fill="rgb(245, 169, 112)"/>
    <polygon points="492.4353680595823,684.4444444444445,510.673715024752,673.9145299145299,528.9120619899218,684.4444444444445,528.9120619899218,705.5042735042736,510.673715024752,716.0341880341881,492.4353680595823,705.5042735042736,492.4353680595823,684.4444444444445" fill="rgb(245, 169, 112)"/>
    <polygon points="510.673715024752,716.034188034188,528.9120619899218,705.5042735042734,547.1504089550915,716.034188034188,547.1504089550915,737.0940170940171,528.9120619899218,747.6239316239316,510.673715024752,737.0940170940171,510.673715024752,716.034188034188" fill="rgb(245, 169, 112)"/>
    <polygon points="492.4353680595823,747.6239316239316,510.673715024752,737.0940170940171,528.9120619899218,747.6239316239316,528.9120619899218,768.6837606837607,510.673715024752,779.2136752136753,492.4353680595823,768.6837606837607,492.4353680595823,747.6239316239316" fill="rgb(245, 169, 112)"/>
    <polygon points="510.673715024752,779.2136752136752,528.9120619899218,768.6837606837606,547.1504089550915,779.2136752136752,547.1504089550915,800.2735042735043,528.9120619899218,810.8034188034188,510.673715024752,800.2735042735043,510.673715024752,779.2136752136752" fill="rgb(245, 169, 112)"/>
    <polygon points="492.4353680595823,810.8034188034188,510.673715024752,800.2735042735043,528.9120619899218,810.8034188034188,528.9120619899218,831.8632478632479,510.673715024752,842.3931623931625,492.4353680595823,831.8632478632479,492.4353680595823,810.8034188034188" fill="rgb(245, 169, 112)"/>
    <polygon points="510.673715024752,842.3931623931624,528.9120619899218,831.8632478632478,547.1504089550915,842.3931623931624,547.1504089550915,863.4529914529915,528.9120619899218,873.982905982906,510.673715024752,863.4529914529915,510.673715024752,842.3931623931624" fill="rgb(245, 169, 112)"/>
    <polygon points="510.673715024752,905.5726495726495,528.9120619899218,895.042735042735,547.1504089550915,905.5726495726495,547.1504089550915,926.6324786324786,528.9120619899218,937.1623931623932,510.673715024752,926.6324786324786,510.673715024752,905.5726495726495" fill="rgb(245, 169, 112)"/>
    <polygon points="547.1504089550914,652.8547008547008,565.3887559202611,642.3247863247863,583.6271028854309,652.8547008547008,583.6271028854309,673.9145299145299,565.3887559202611,684.4444444444445,547.1504089550914,673.9145299145299,547.1504089550914,652.8547008547008" fill="rgb(245, 169, 112)"/>
    <polygon points="528.9120619899217,684.4444444444445,547.1504089550914,673.9145299145299,565.3887559202611,684.4444444444445,565.3887559202611,705.5042735042736,547.1504089550914,716.0341880341881,528.9120619899217,705.5042735042736,528.9120619899217,684.4444444444445" fill="rgb(245, 169, 112)"/>
    <polygon points="547.1504089550914,716.034188034188,565.3887559202611,705.5042735042734,583.6271028854309,716.034188034188,583.6271028854309,737.0940170940171,565.3887559202611,747.6239316239316,547.1504089550914,737.0940170940171,547.1504089550914,716.034188034188" fill="rgb(245, 169, 112)"/>
    <polygon points="528.9120619899217,747.6239316239316,547.1504089550914,737.0940170940171,565.3887559202611,747.6239316239316,565.3887559202611,768.6837606837607,547.1504089550914,779.2136752136753,528.9120619899217,768.6837606837607,528.9120619899217,747.6239316239316" fill="rgb(245, 169, 112)"/>
    <polygon points="547.1504089550914,779.2136752136752,565.3887559202611,768.6837606837606,583.6271028854309,779.2136752136752,583.6271028854309,800.2735042735043,565.3887559202611,810.8034188034188,547.1504089550914,800.2735042735043,547.1504089550914,779.2136752136752" fill="rgb(245, 169, 112)"/>
    <polygon points="528.9120619899217,810.8034188034188,547.1504089550914,800.2735042735043,565.3887559202611,810.8034188034188,565.3887559202611,831.8632478632479,547.1504089550914,842.3931623931625,528.9120619899217,831.8632478632479,528.9120619899217,810.8034188034188" fill="rgb(245, 169, 112)"/>
    <polygon points="547.1504089550914,842.3931623931624,565.3887559202611,831.8632478632478,583.6271028854309,842.3931623931624,583.6271028854309,863.4529914529915,565.3887559202611,873.982905982906,547.1504089550914,863.4529914529915,547.1504089550914,842.3931623931624" fill="rgb(245, 169, 112)"/>
    <polygon points="528.9120619899217,873.982905982906,547.1504089550914,863.4529914529915,565.3887559202611,873.982905982906,565.3887559202611,895.0427350427351,547.1504089550914,905.5726495726497,528.9120619899217,895.0427350427351,528.9120619899217,873.982905982906" fill="rgb(245, 169, 112)"/>
    <polygon points="547.1504089550914,905.5726495726495,565.3887559202611,895.042735042735,583.6271028854309,905.5726495726495,583.6271028854309,926.6324786324786,565.3887559202611,937.1623931623932,547.1504089550914,926.6324786324786,547.1504089550914,905.5726495726495" fill="rgb(245, 169, 112)"/>
    <polygon points="528.9120619899217,937.1623931623932,547.1504089550914,926.6324786324786,565.3887559202611,937.1623931623932,565.3887559202611,958.2222222222223,547.1504089550914,968.7521367521368,528.9120619899217,958.2222222222223,528.9120619899217,937.1623931623932" fill="rgb(245, 169, 112)"/>
    <polygon points="565.3887559202611,684.4444444444445,583.6271028854309,673.9145299145299,601.8654498506006,684.4444444444445,601.8654498506006,705.5042735042736,583.6271028854309,716.0341880341881,565.3887559202611,705.5042735042736,565.3887559202611,684.4444444444445" fill="rgb(245, 169, 112)"/>
    <polygon points="583.6271028854309,716.034188034188,601.8654498506006,705.5042735042734,620.1037968157704,716.034188034188,620.1037968157704,737.0940170940171,601.8654498506006,747.6239316239316,583.6271028854309,737.0940170940171,583.6271028854309,716.034188034188" fill="rgb(245, 169, 112)"/>
    <polygon points="565.3887559202611,747.6239316239316,583.6271028854309,737.0940170940171,601.8654498506006,747.6239316239316,601.8654498506006,768.6837606837607,583.6271028854309,779.2136752136753,565.3887559202611,768.6837606837607,565.3887559202611,747.6239316239316" fill="rgb(245, 169, 112)"/>
    <polygon points="583.6271028854309,779.2136752136752,601.8654498506006,768.6837606837606,620.1037968157704,779.2136752136752,620.1037968157704,800.2735042735043,601.8654498506006,810.8034188034188,583.6271028854309,800.2735042735043,583.6271028854309,779.2136752136752" fill="rgb(245, 169, 112)"/>
    <polygon points="565.3887559202611,810.8034188034188,583.6271028854309,800.2735042735043,601.8654498506006,810.8034188034188,601.8654498506006,831.8632478632479,583.6271028854309,842.3931623931625,565.3887559202611,831.8632478632479,565.3887559202611,810.8034188034188" fill="rgb(245, 169, 112)"/>
    <polygon points="583.6271028854309,842.3931623931624,601.8654498506006,831.8632478632478,620.1037968157704,842.3931623931624,620.1037968157704,863.4529914529915,601.8654498506006,873.982905982906,583.6271028854309,863.4529914529915,583.6271028854309,842.3931623931624" fill="rgb(245, 169, 112)"/>
    <polygon points="565.3887559202611,873.982905982906,583.6271028854309,863.4529914529915,601.8654498506006,873.982905982906,601.8654498506006,895.0427350427351,583.6271028854309,905.5726495726497,565.3887559202611,895.0427350427351,565.3887559202611,873.982905982906" fill="rgb(245, 169, 112)"/>
    <polygon points="583.6271028854309,905.5726495726495,601.8654498506006,895.042735042735,620.1037968157704,905.5726495726495,620.1037968157704,926.6324786324786,601.8654498506006,937.1623931623932,583.6271028854309,926.6324786324786,583.6271028854309,905.5726495726495" fill="rgb(245, 169, 112)"/>
    <polygon points="565.3887559202611,937.1623931623932,583.6271028854309,926.6324786324786,601.8654498506006,937.1623931623932,601.8654498506006,958.2222222222223,583.6271028854309,968.7521367521368,565.3887559202611,958.2222222222223,565.3887559202611,937.1623931623932" fill="rgb(245, 169, 112)"/>
    <polygon points="601.8654498506006,684.4444444444445,620.1037968157704,673.9145299145299,638.3421437809401,684.4444444444445,638.3421437809401,705.5042735042736,620.1037968157704,716.0341880341881,601.8654498506006,705.5042735042736,601.8654498506006,684.4444444444445" fill="rgb(245, 169, 112)"/>
    <polygon points="620.1037968157702,716.034188034188,638.34214378094,705.5042735042734,656.5804907461097,716.034188034188,656.5804907461097,737.0940170940171,638.34214378094,747.6239316239316,620.1037968157702,737.0940170940171,620.1037968157702,716.034188034188" fill="rgb(245, 169, 112)"/>
    <polygon points="601.8654498506006,747.6239316239316,620.1037968157704,737.0940170940171,638.3421437809401,747.6239316239316,638.3421437809401,768.6837606837607,620.1037968157704,779.2136752136753,601.8654498506006,768.6837606837607,601.8654498506006,747.6239316239316" fill="rgb(245, 169, 112)"/>
    <polygon points="620.1037968157702,779.2136752136752,638.34214378094,768.6837606837606,656.5804907461097,779.2136752136752,656.5804907461097,800.2735042735043,638.34214378094,810.8034188034188,620.1037968157702,800.2735042735043,620.1037968157702,779.2136752136752" fill="rgb(245, 169, 112)"/>
    <polygon points="601.8654498506006,810.8034188034188,620.1037968157704,800.2735042735043,638.3421437809401,810.8034188034188,638.3421437809401,831.8632478632479,620.1037968157704,842.3931623931625,601.8654498506006,831.8632478632479,601.8654498506006,810.8034188034188" fill="rgb(245, 169, 112)"/>
    <polygon points="620.1037968157702,842.3931623931624,638.34214378094,831.8632478632478,656.5804907461097,842.3931623931624,656.5804907461097,863.4529914529915,638.34214378094,873.982905982906,620.1037968157702,863.4529914529915,620.1037968157702,842.3931623931624" fill="rgb(245, 169, 112)"/>
    <polygon points="601.8654498506006,873.982905982906,620.1037968157704,863.4529914529915,638.3421437809401,873.982905982906,638.3421437809401,895.0427350427351,620.1037968157704,905.5726495726497,601.8654498506006,895.0427350427351,601.8654498506006,873.982905982906" fill="rgb(245, 169, 112)"/>
    <polygon points="601.8654498506006,937.1623931623932,620.1037968157704,926.6324786324786,638.3421437809401,937.1623931623932,638.3421437809401,958.2222222222223,620.1037968157704,968.7521367521368,601.8654498506006,958.2222222222223,601.8654498506006,937.1623931623932" fill="rgb(245, 169, 112)"/>
    <polygon points="638.34214378094,684.4444444444445,656.5804907461097,673.9145299145299,674.8188377112795,684.4444444444445,674.8188377112795,705.5042735042736,656.5804907461097,716.0341880341881,638.34214378094,705.5042735042736,638.34214378094,684.4444444444445" fill="rgb(245, 169, 112)"/>
    <polygon points="638.34214378094,747.6239316239316,656.5804907461097,737.0940170940171,674.8188377112795,747.6239316239316,674.8188377112795,768.6837606837607,656.5804907461097,779.2136752136753,638.34214378094,768.6837606837607,638.34214378094,747.6239316239316" fill="rgb(245, 169, 112)"/>
    <polygon points="638.34214378094,810.8034188034188,656.5804907461097,800.2735042735043,674.8188377112795,810.8034188034188,674.8188377112795,831.8632478632479,656.5804907461097,842.3931623931625,638.34214378094,831.8632478632479,638.34214378094,810.8034188034188" fill="rgb(245, 169, 112)"/>
</g>
    <g id="VIR">
        <polygon points="948.3940421888251,652.8547008547008,966.6323891539948,642.3247863247863,984.8707361191646,652.8547008547008,984.8707361191646,673.9145299145299,966.6323891539948,684.4444444444445,948.3940421888251,673.9145299145299,948.3940421888251,652.8547008547008" fill="rgb(245, 148, 112)"/>
        <polygon points="966.6323891539948,621.2649572649573,984.8707361191646,610.7350427350427,1003.1090830843343,621.2649572649573,1003.1090830843343,642.3247863247864,984.8707361191646,652.8547008547009,966.6323891539948,642.3247863247864,966.6323891539948,621.2649572649573" fill="rgb(245, 148, 112)"/>
        <polygon points="984.8707361191646,652.8547008547008,1003.1090830843343,642.3247863247863,1021.347430049504,652.8547008547008,1021.347430049504,673.9145299145299,1003.1090830843343,684.4444444444445,984.8707361191646,673.9145299145299,984.8707361191646,652.8547008547008" fill="rgb(245, 148, 112)"/>
        <polygon points="1021.347430049504,652.8547008547008,1039.5857770146738,642.3247863247863,1057.8241239798435,652.8547008547008,1057.8241239798435,673.9145299145299,1039.5857770146738,684.4444444444445,1021.347430049504,673.9145299145299,1021.347430049504,652.8547008547008" fill="rgb(245, 148, 112)"/>
        <polygon points="1057.8241239798435,652.8547008547008,1076.0624709450133,642.3247863247863,1094.300817910183,652.8547008547008,1094.300817910183,673.9145299145299,1076.0624709450133,684.4444444444445,1057.8241239798435,673.9145299145299,1057.8241239798435,652.8547008547008" fill="rgb(245, 148, 112)"/>
        <polygon points="1094.3008179101828,589.6752136752136,1112.5391648753525,579.1452991452991,1130.7775118405223,589.6752136752136,1130.7775118405223,610.7350427350427,1112.5391648753525,621.2649572649573,1094.3008179101828,610.7350427350427,1094.3008179101828,589.6752136752136" fill="rgb(245, 148, 112)"/>
        <polygon points="1076.062470945013,621.2649572649573,1094.3008179101828,610.7350427350427,1112.5391648753525,621.2649572649573,1112.5391648753525,642.3247863247864,1094.3008179101828,652.8547008547009,1076.062470945013,642.3247863247864,1076.062470945013,621.2649572649573" fill="rgb(245, 148, 112)"/>
        <polygon points="1094.3008179101828,652.8547008547008,1112.5391648753525,642.3247863247863,1130.7775118405223,652.8547008547008,1130.7775118405223,673.9145299145299,1112.5391648753525,684.4444444444445,1094.3008179101828,673.9145299145299,1094.3008179101828,652.8547008547008" fill="rgb(245, 148, 112)"/>
        <polygon points="1112.5391648753525,621.2649572649573,1130.7775118405223,610.7350427350427,1149.015858805692,621.2649572649573,1149.015858805692,642.3247863247864,1130.7775118405223,652.8547008547009,1112.5391648753525,642.3247863247864,1112.5391648753525,621.2649572649573" fill="rgb(245, 148, 112)"/>
        <polygon points="1130.7775118405223,652.8547008547008,1149.015858805692,642.3247863247863,1167.2542057708617,652.8547008547008,1167.2542057708617,673.9145299145299,1149.015858805692,684.4444444444445,1130.7775118405223,673.9145299145299,1130.7775118405223,652.8547008547008" fill="rgb(245, 148, 112)"/>
        <polygon points="1167.2542057708617,589.6752136752136,1185.4925527360315,579.1452991452991,1203.7308997012012,589.6752136752136,1203.7308997012012,610.7350427350427,1185.4925527360315,621.2649572649573,1167.2542057708617,610.7350427350427,1167.2542057708617,589.6752136752136" fill="rgb(245, 148, 112)"/>
        <polygon points="1149.015858805692,621.2649572649573,1167.2542057708617,610.7350427350427,1185.4925527360315,621.2649572649573,1185.4925527360315,642.3247863247864,1167.2542057708617,652.8547008547009,1149.015858805692,642.3247863247864,1149.015858805692,621.2649572649573" fill="rgb(245, 148, 112)"/>
        <polygon points="1167.2542057708617,652.8547008547008,1185.4925527360315,642.3247863247863,1203.7308997012012,652.8547008547008,1203.7308997012012,673.9145299145299,1185.4925527360315,684.4444444444445,1167.2542057708617,673.9145299145299,1167.2542057708617,652.8547008547008" fill="rgb(245, 148, 112)"/></g>
    <g id="WVI">
        <polygon points="1021.347430049504,589.6752136752136,1039.5857770146738,579.1452991452991,1057.8241239798435,589.6752136752136,1057.8241239798435,610.7350427350427,1039.5857770146738,621.2649572649573,1021.347430049504,610.7350427350427,1021.347430049504,589.6752136752136" fill="rgb(245, 126, 112)"/>
        <polygon points="1003.1090830843343,621.2649572649573,1021.347430049504,610.7350427350427,1039.5857770146738,621.2649572649573,1039.5857770146738,642.3247863247864,1021.347430049504,652.8547008547009,1003.1090830843343,642.3247863247864,1003.1090830843343,621.2649572649573" fill="rgb(245, 126, 112)"/>
        <polygon points="1039.5857770146738,558.0854700854701,1057.8241239798435,547.5555555555555,1076.0624709450133,558.0854700854701,1076.0624709450133,579.1452991452992,1057.8241239798435,589.6752136752137,1039.5857770146738,579.1452991452992,1039.5857770146738,558.0854700854701" fill="rgb(245, 126, 112)"/>
        <polygon points="1057.8241239798435,589.6752136752136,1076.0624709450133,579.1452991452991,1094.300817910183,589.6752136752136,1094.300817910183,610.7350427350427,1076.0624709450133,621.2649572649573,1057.8241239798435,610.7350427350427,1057.8241239798435,589.6752136752136" fill="rgb(245, 126, 112)"/>
        <polygon points="1039.5857770146738,621.2649572649573,1057.8241239798435,610.7350427350427,1076.0624709450133,621.2649572649573,1076.0624709450133,642.3247863247864,1057.8241239798435,652.8547008547009,1039.5857770146738,642.3247863247864,1039.5857770146738,621.2649572649573" fill="rgb(245, 126, 112)"/></g>
    <g id="WIS">
        <polygon points="674.8188377112795,368.54700854700855,693.0571846764492,358.01709401709405,711.2955316416189,368.54700854700855,711.2955316416189,389.60683760683764,693.0571846764492,400.13675213675214,674.8188377112795,389.60683760683764,674.8188377112795,368.54700854700855" fill="rgb(245, 119, 112)"/>
        <polygon points="693.0571846764491,400.13675213675214,711.2955316416188,389.60683760683764,729.5338786067886,400.13675213675214,729.5338786067886,421.19658119658123,711.2955316416188,431.7264957264957,693.0571846764491,421.19658119658123,693.0571846764491,400.13675213675214" fill="rgb(245, 119, 112)"/>
        <polygon points="711.2955316416188,368.54700854700855,729.5338786067886,358.01709401709405,747.7722255719583,368.54700854700855,747.7722255719583,389.60683760683764,729.5338786067886,400.13675213675214,711.2955316416188,389.60683760683764,711.2955316416188,368.54700854700855" fill="rgb(245, 119, 112)"/>
        <polygon points="729.5338786067886,400.13675213675214,747.7722255719583,389.60683760683764,766.010572537128,400.13675213675214,766.010572537128,421.19658119658123,747.7722255719583,431.7264957264957,729.5338786067886,421.19658119658123,729.5338786067886,400.13675213675214" fill="rgb(245, 119, 112)"/>
        <polygon points="711.2955316416188,431.7264957264957,729.5338786067886,421.19658119658123,747.7722255719583,431.7264957264957,747.7722255719583,452.7863247863248,729.5338786067886,463.3162393162393,711.2955316416188,452.7863247863248,711.2955316416188,431.7264957264957" fill="rgb(245, 119, 112)"/>
        <polygon points="747.7722255719583,368.54700854700855,766.010572537128,358.01709401709405,784.2489195022978,368.54700854700855,784.2489195022978,389.60683760683764,766.010572537128,400.13675213675214,747.7722255719583,389.60683760683764,747.7722255719583,368.54700854700855" fill="rgb(245, 119, 112)"/>
        <polygon points="766.010572537128,400.13675213675214,784.2489195022978,389.60683760683764,802.4872664674675,400.13675213675214,802.4872664674675,421.19658119658123,784.2489195022978,431.7264957264957,766.010572537128,421.19658119658123,766.010572537128,400.13675213675214" fill="rgb(245, 119, 112)"/>
        <polygon points="747.7722255719583,431.7264957264957,766.010572537128,421.19658119658123,784.2489195022978,431.7264957264957,784.2489195022978,452.7863247863248,766.010572537128,463.3162393162393,747.7722255719583,452.7863247863248,747.7722255719583,431.7264957264957" fill="rgb(245, 119, 112)"/>
        <polygon points="784.2489195022977,368.54700854700855,802.4872664674674,358.01709401709405,820.7256134326371,368.54700854700855,820.7256134326371,389.60683760683764,802.4872664674674,400.13675213675214,784.2489195022977,389.60683760683764,784.2489195022977,368.54700854700855" fill="rgb(245, 119, 112)"/>
        <polygon points="784.2489195022977,431.7264957264957,802.4872664674674,421.19658119658123,820.7256134326371,431.7264957264957,820.7256134326371,452.7863247863248,802.4872664674674,463.3162393162393,784.2489195022977,452.7863247863248,784.2489195022977,431.7264957264957" fill="rgb(245, 119, 112)"/></g>
   <g id="ARK">
        <polygon points="656.5804907461097,652.8547008547008,674.8188377112795,642.3247863247863,693.0571846764492,652.8547008547008,693.0571846764492,673.9145299145299,674.8188377112795,684.4444444444445,656.5804907461097,673.9145299145299,656.5804907461097,652.8547008547008" fill="rgb(112, 245, 209)"/>
        <polygon points="656.5804907461097,716.034188034188,674.8188377112795,705.5042735042734,693.0571846764492,716.034188034188,693.0571846764492,737.0940170940171,674.8188377112795,747.6239316239316,656.5804907461097,737.0940170940171,656.5804907461097,716.034188034188" fill="rgb(112, 245, 209)"/>
        <polygon points="674.8188377112795,621.2649572649573,693.0571846764492,610.7350427350427,711.2955316416189,621.2649572649573,711.2955316416189,642.3247863247864,693.0571846764492,652.8547008547009,674.8188377112795,642.3247863247864,674.8188377112795,621.2649572649573" fill="rgb(112, 245, 209)"/>
        <polygon points="693.0571846764491,652.8547008547008,711.2955316416188,642.3247863247863,729.5338786067886,652.8547008547008,729.5338786067886,673.9145299145299,711.2955316416188,684.4444444444445,693.0571846764491,673.9145299145299,693.0571846764491,652.8547008547008" fill="rgb(112, 245, 209)"/>
        <polygon points="674.8188377112795,684.4444444444445,693.0571846764492,673.9145299145299,711.2955316416189,684.4444444444445,711.2955316416189,705.5042735042736,693.0571846764492,716.0341880341881,674.8188377112795,705.5042735042736,674.8188377112795,684.4444444444445" fill="rgb(112, 245, 209)"/>
        <polygon points="693.0571846764491,716.034188034188,711.2955316416188,705.5042735042734,729.5338786067886,716.034188034188,729.5338786067886,737.0940170940171,711.2955316416188,747.6239316239316,693.0571846764491,737.0940170940171,693.0571846764491,716.034188034188" fill="rgb(112, 245, 209)"/></g>
    <g id="ALA">
        <polygon points="766.010572537128,779.2136752136752,784.2489195022978,768.6837606837606,802.4872664674675,779.2136752136752,802.4872664674675,800.2735042735043,784.2489195022978,810.8034188034188,766.010572537128,800.2735042735043,766.010572537128,779.2136752136752" fill="rgb(112, 245, 238)"/>
        <polygon points="784.2489195022977,747.6239316239316,802.4872664674674,737.0940170940171,820.7256134326371,747.6239316239316,820.7256134326371,768.6837606837607,802.4872664674674,779.2136752136753,784.2489195022977,768.6837606837607,784.2489195022977,747.6239316239316" fill="rgb(112, 245, 238)"/>
        <polygon points="802.4872664674674,779.2136752136752,820.7256134326371,768.6837606837606,838.9639603978069,779.2136752136752,838.9639603978069,800.2735042735043,820.7256134326371,810.8034188034188,802.4872664674674,800.2735042735043,802.4872664674674,779.2136752136752" fill="rgb(112, 245, 238)"/>
        <polygon points="784.2489195022977,810.8034188034188,802.4872664674674,800.2735042735043,820.7256134326371,810.8034188034188,820.7256134326371,831.8632478632479,802.4872664674674,842.3931623931625,784.2489195022977,831.8632478632479,784.2489195022977,810.8034188034188" fill="rgb(112, 245, 238)"/>
        <polygon points="802.4872664674674,842.3931623931624,820.7256134326371,831.8632478632478,838.9639603978069,842.3931623931624,838.9639603978069,863.4529914529915,820.7256134326371,873.982905982906,802.4872664674674,863.4529914529915,802.4872664674674,842.3931623931624" fill="rgb(112, 245, 238)"/>
        <polygon points="784.2489195022977,873.982905982906,802.4872664674674,863.4529914529915,820.7256134326371,873.982905982906,820.7256134326371,895.0427350427351,802.4872664674674,905.5726495726497,784.2489195022977,895.0427350427351,784.2489195022977,873.982905982906" fill="rgb(112, 245, 238)"/>
        <polygon points="820.7256134326371,747.6239316239316,838.9639603978069,737.0940170940171,857.2023073629766,747.6239316239316,857.2023073629766,768.6837606837607,838.9639603978069,779.2136752136753,820.7256134326371,768.6837606837607,820.7256134326371,747.6239316239316" fill="rgb(112, 245, 238)"/>
        <polygon points="820.7256134326371,810.8034188034188,838.9639603978069,800.2735042735043,857.2023073629766,810.8034188034188,857.2023073629766,831.8632478632479,838.9639603978069,842.3931623931625,820.7256134326371,831.8632478632479,820.7256134326371,810.8034188034188" fill="rgb(112, 245, 238)"/>
        <polygon points="838.9639603978069,842.3931623931624,857.2023073629766,831.8632478632478,875.4406543281464,842.3931623931624,875.4406543281464,863.4529914529915,857.2023073629766,873.982905982906,838.9639603978069,863.4529914529915,838.9639603978069,842.3931623931624" fill="rgb(112, 245, 238)"/></g>
    </svg>
